<svg width="58" height="58" viewBox="0 0 58 58" fill="none" xmlns="http://www.w3.org/2000/svg">
<path d="M50.8347 12.7044C53.0338 15.3434 54.131 18.4223 54.131 21.9409C54.131 34.6937 46.8762 38.4323 40.0587 39.5318C40.9384 41.0713 41.1583 42.8306 41.1583 44.5899V53.6041C41.1583 54.7037 40.4986 55.3634 39.6189 55.3634C39.387 55.3667 39.1567 55.3234 38.9418 55.2361C38.7269 55.1489 38.5316 55.0194 38.3676 54.8554C38.2036 54.6913 38.0741 54.4961 37.9869 54.2812C37.8996 54.0663 37.8563 53.836 37.8596 53.6041V44.5899C37.9754 43.6683 37.8769 42.7323 37.5717 41.855C37.2666 40.9777 36.763 40.1827 36.1002 39.5318L37.1998 36.6729C44.0172 35.7933 51.0546 33.5941 51.0546 21.721C51.0546 18.8621 49.955 16.2231 47.9757 14.0239L47.5359 12.267C48.3722 10.1598 48.4491 7.82722 47.7534 5.6695C46.6562 5.887 44.4571 6.32925 40.7209 8.96825L39.399 9.18575C34.205 7.86689 28.7638 7.86689 23.5698 9.18575L22.2479 8.96825C18.2942 6.54917 16.0951 5.88942 14.9931 5.88942C14.3333 8.08858 14.3333 10.5052 15.2106 12.4869L14.7732 14.2438C12.574 16.443 11.4744 19.3019 11.4744 21.9409C11.4744 33.5941 18.0719 36.0132 25.3267 36.8928L26.2064 39.7518C24.8869 41.0713 24.2272 42.8306 24.4471 44.5899V53.824C24.4503 54.0559 24.407 54.2862 24.3198 54.5011C24.2325 54.716 24.103 54.9113 23.939 55.0753C23.775 55.2393 23.5798 55.3688 23.3648 55.456C23.1499 55.5433 22.9197 55.5866 22.6877 55.5833C22.4558 55.5866 22.2256 55.5433 22.0106 55.456C21.7957 55.3688 21.6005 55.2393 21.4365 55.0753C21.2724 54.9113 21.143 54.716 21.0557 54.5011C20.9684 54.2862 20.9252 54.0559 20.9284 53.824V48.7683C13.6736 50.3078 10.8147 46.5692 8.61549 43.7127C7.5159 42.3932 6.63624 41.2936 5.53665 41.0737C5.31915 40.8538 4.65699 39.9741 4.8769 39.0944C5.09682 38.2148 5.97649 37.555 6.85857 37.9948C9.05774 38.4347 10.3748 40.194 11.6919 41.7334C13.6736 44.3724 15.6528 46.7891 21.5882 45.472V44.5923C21.3707 42.833 21.8081 41.0737 22.6877 39.5343C16.0902 38.2148 8.39557 34.4762 8.39557 21.9433C8.39557 18.4247 9.49516 15.3458 11.6943 12.7068C11.0346 9.63042 11.2545 6.33167 12.3541 3.69267L13.4537 2.813C13.8935 2.59308 16.9723 1.93333 23.3451 5.88942C28.6142 4.57009 34.1274 4.57009 39.3966 5.88942C45.5567 1.711 48.8554 2.36833 49.2952 2.59067L50.3948 3.47033C51.4944 6.54917 51.7143 9.628 50.8347 12.7044V12.7044Z" fill="white"/>
</svg>
