<svg width="58" height="58" viewBox="0 0 58 58" fill="none" xmlns="http://www.w3.org/2000/svg">
<g clip-path="url(#clip0)">
<path d="M57.7124 21.6243C55.8443 11.7522 45.9698 10.5246 45.9698 10.5246H1.74726C0.287596 10.5246 0.106346 12.4531 0.106346 12.4531C0.106346 12.4531 -0.0918207 30.1527 0.0531793 41.0229C0.449513 46.8809 6.30268 47.4802 6.30268 47.4802C6.30268 47.4802 26.2813 47.4247 35.2205 47.3618C41.1123 46.3323 41.7044 41.1607 41.644 38.338C52.1613 38.918 59.5805 31.4964 57.7124 21.6243V21.6243ZM30.9793 30.1092C27.9681 33.6207 21.286 39.7179 21.286 39.7179C21.286 39.7179 20.9936 40.0055 20.5368 39.7735C20.3532 39.6357 20.2758 39.556 20.2758 39.556C19.2053 38.4902 12.1365 32.1876 10.527 30.0005C8.8136 27.6684 8.01126 23.4755 10.3071 21.0347C12.6053 18.5938 17.5692 18.4102 20.851 22.0182C20.851 22.0182 24.6331 17.7117 29.232 19.691C33.8333 21.6727 33.6593 26.9676 30.9793 30.1092V30.1092ZM45.8973 31.2644C43.6547 31.5447 41.8325 31.3321 41.8325 31.3321V17.603H46.11C46.11 17.603 50.8733 18.9346 50.8733 23.9782C50.8733 28.6012 48.4928 30.4234 45.8973 31.2644V31.2644Z" fill="white"/>
</g>
<defs>
<clipPath id="clip0">
<rect width="58" height="58" fill="white"/>
</clipPath>
</defs>
</svg>
